Coordinates
version=1
nRows=32
nColumns=22
inDegrees=yes

Units are S.I. units (second, meters, Newtons, ...)
If the header above contains a line with 'inDegrees', this indicates whether rotational values are in degrees (yes) or radians (no).

endheader
time	pelvis_tilt	pelvis_list	pelvis_rotation	pelvis_tx	pelvis_ty	pelvis_tz	hip_flexion_r	hip_adduction_r	hip_rotation_r	knee_angle_r	ankle_angle_r	subtalar_angle_r	hip_flexion_l	hip_adduction_l	hip_rotation_l	knee_angle_l	ankle_angle_l	subtalar_angle_l	lumbar_extension	lumbar_bending	lumbar_rotation
      4.18000000	     11.52305162	     -3.94538836	     13.09497839	      0.97876100	      0.92078171	      0.06443111	     12.17303410	      5.11516858	    -17.21336855	    -16.94871017	     -4.87346499	     -0.69667396	    -18.31909930	     -7.71000912	      3.75588348	    -33.69605565	     19.45919809	     -5.19992645	    -10.70624200	      4.94824886	    -16.52402197
      4.19000000	     11.59153570	     -4.26447600	     13.15869585	      0.98872102	      0.92225145	      0.06557341	     11.68786642	      5.66033400	    -17.14372657	    -17.21022029	     -4.31841618	     -0.67458112	    -17.93001690	     -8.22250143	      3.83576000	    -35.23081511	     17.39060320	     -4.76772185	    -10.48662615	      5.22638144	    -16.38961986
      4.20000000	     11.65219823	     -4.53077333	     13.23687347	      0.99842413	      0.92369612	      0.06668910	     11.17320336	      6.15473754	    -17.08799038	    -17.40159964	     -3.75424686	     -0.62561733	    -17.40833045	     -8.67770691	      3.94893947	    -36.91662775	     15.24414241	     -4.44593778	    -10.29531646	      5.45036339	    -16.27306311
      4.21000000	     11.70260086	     -4.76579030	     13.33381380	      1.00783162	      0.92505051	      0.06776344	     10.64989906	      6.61642942	    -17.06119589	    -17.53784174	     -3.18726158	     -0.58230422	    -16.75136249	     -9.09162355	      4.11969406	    -38.74633740	     13.06803574	     -4.15541523	    -10.13183786	      5.65090045	    -16.16727367
      4.22000000	     11.74252821	     -4.97010048	     13.45681205	      1.01695118	      0.92629220	      0.06880729	     10.10290282	      7.04772703	    -17.10479917	    -17.58678265	     -2.62901074	     -0.56557873	    -15.96027624	     -9.47351015	      4.33006576	    -40.70657395	     10.91841173	     -3.91486543	     -9.99246366	      5.81802978	    -16.04870354
      4.23000000	     11.78117468	     -5.16273368	     13.60643372	      1.02575360	      0.92738739	      0.06981361	      9.53886057	      7.47274770	    -17.17876458	    -17.56368750	     -2.06312776	     -0.59136318	    -15.04527624	     -9.84397350	      4.57405348	    -42.78849046	      8.86034656	     -3.63488599	     -9.88823854	      5.98265890	    -15.94795231
      4.24000000	     11.83682789	     -5.35661914	     13.77831635	      1.03424994	      0.92835708	      0.07076253	      8.95433852	      7.90003693	    -17.32671618	    -17.49481514	     -1.54013160	     -0.65674668	    -14.04477182	    -10.21059072	      4.85603738	    -44.94901566	      6.92776158	     -3.34875849	     -9.83450799	      6.16502098	    -15.81848186
      4.25000000	     11.91547501	     -5.56110324	     13.96724617	      1.04245026	      0.92919995	      0.07166757	      8.34707564	      8.34462162	    -17.51286955	    -17.38156381	     -1.04945091	     -0.75640979	    -12.97164928	    -10.59264905	      5.13819139	    -47.16663768	      5.17778986	     -2.98092939	     -9.83348842	      6.37595067	    -15.69196616
      4.26000000	     12.01361582	     -5.78145790	     14.15818556	      1.05039164	      0.92993070	      0.07254368	      7.71612337	      8.81830433	    -17.69226831	    -17.21476790	     -0.56232794	     -0.89448343	    -11.84982311	    -10.98820863	      5.41539001	    -49.38397390	      3.66119599	     -2.44848021	     -9.87272481	      6.61484942	    -15.53679655
      4.27000000	     12.13892253	     -6.00072612	     14.32925017	      1.05809062	      0.93058854	      0.07337428	      7.05843995	      9.30146496	    -17.82338843	    -17.02191415	     -0.06457275	     -1.07249660	    -10.71848138	    -11.37771066	      5.65526210	    -51.54589044	      2.40294753	     -1.71316419	     -9.96031116	      6.86991551	    -15.33726534
      4.28000000	     12.32127071	     -6.26456938	     14.50108355	      1.06555294	      0.93121567	      0.07415381	      6.34483505	      9.84766016	    -17.96043524	    -16.77829796	      0.31101577	     -1.18170035	     -9.59913495	    -11.83890247	      5.82830349	    -53.62626972	      1.52874377	     -1.19739601	    -10.11450736	      7.20040340	    -15.13762216
      4.29000000	     12.50296596	     -6.53265541	     14.61802386	      1.07279537	      0.93177641	      0.07495203	      5.63408121	     10.40359826	    -18.00786548	    -16.51276674	      0.69334863	     -1.27714857	     -8.47242810	    -12.29581722	      5.92641635	    -55.57259965	      0.98560505	     -0.65883498	    -10.28470241	      7.53489378	    -14.88337164
      4.30000000	     12.69794022	     -6.80023467	     14.68513570	      1.07981966	      0.93233039	      0.07574871	      4.90113734	     10.96356790	    -17.98195193	    -16.21120209	      1.04672192	     -1.32557837	     -7.36700442	    -12.75067523	      5.94653812	    -57.34399813	      0.79079638	     -0.30998407	    -10.48153222	      7.87077523	    -14.57250218
      4.31000000	     12.88374908	     -7.08101938	     14.70135411	      1.08661493	      0.93284217	      0.07657378	      4.17790323	     11.53419447	    -17.88076818	    -15.88245777	      1.35399890	     -1.33791567	     -6.25233774	    -13.22003763	      5.88852567	    -58.93761860	      0.92678402	     -0.16475982	    -10.68163133	      8.21564634	    -14.23607503
      4.32000000	     13.05234055	     -7.38174987	     14.67119972	      1.09317537	      0.93330335	      0.07743493	      3.47604175	     12.12012719	    -17.69183786	    -15.53001853	      1.58914212	     -1.32807811	     -5.12021816	    -13.71257029	      5.76119647	    -60.34256573	      1.37846111	     -0.24504816	    -10.87279760	      8.57454277	    -13.88053575
      4.33000000	     13.18369469	     -7.69161070	     14.59500524	      1.09952904	      0.93370777	      0.07834703	      2.80715095	     12.70391848	    -17.43661698	    -15.14576571	      1.75492352	     -1.30622058	     -3.95918938	    -14.21413919	      5.57431425	    -61.54504032	      2.07808931	     -0.61084725	    -11.03110558	      8.92232506	    -13.49461085
      4.34000000	     13.28192231	     -7.96780947	     14.49803089	      1.10567855	      0.93408746	      0.07925200	      2.16013990	     13.23618793	    -17.15859388	    -14.74422247	      1.96885895	     -1.26558233	     -2.78400085	    -14.67196682	      5.36439916	    -62.53208339	      2.97929036	     -1.52777804	    -11.16637051	      9.21567885	    -13.12327190
      4.35000000	     13.37161279	     -8.22836832	     14.37441500	      1.11160469	      0.93446324	      0.08018403	      1.52147374	     13.74506867	    -16.83252553	    -14.33463961	      2.09773529	     -1.26404791	     -1.63022934	    -15.11281696	      5.13079369	    -63.29739664	      4.02542389	     -2.38437601	    -11.31158601	      9.48063519	    -12.74796784
      4.36000000	     13.44077563	     -8.45518750	     14.23981546	      1.11730718	      0.93482346	      0.08110154	      0.90781205	     14.20292507	    -16.50423140	    -13.93228566	      2.20669564	     -1.29106090	     -0.48569497	    -15.50688088	      4.89436451	    -63.84535974	      5.17488844	     -3.35181563	    -11.45344277	      9.69593696	    -12.38592717
      4.37000000	     13.48887526	     -8.64072295	     14.09403063	      1.12283276	      0.93519131	      0.08199843	      0.31016546	     14.60310947	    -16.19982772	    -13.52539182	      2.30732446	     -1.34592246	      0.62971392	    -15.84400780	      4.64807522	    -64.16156095	      6.39389288	     -4.40129785	    -11.58644706	      9.85285125	    -12.04386021
      4.38000000	     13.52890760	     -8.78553254	     13.94777328	      1.12810266	      0.93556913	      0.08284668	     -0.26457605	     14.94779504	    -15.88379978	    -13.14177186	      2.39396894	     -1.42138981	      1.71091528	    -16.10798588	      4.42659019	    -64.26733627	      7.65654036	     -5.47068239	    -11.73961411	      9.96283124	    -11.72086607
      4.39000000	     13.56424476	     -8.88294089	     13.79408245	      1.13312800	      0.93597187	      0.08364395	     -0.81716429	     15.22622071	    -15.58726313	    -12.79099032	      2.48820906	     -1.50285279	      2.73668902	    -16.28177166	      4.23060225	    -64.16219175	      8.94275411	     -6.52926610	    -11.91983082	     10.01949320	    -11.41317999
      4.40000000	     13.59468946	     -8.94448984	     13.62904700	      1.13794944	      0.93639749	      0.08440095	     -1.34590521	     15.45100664	    -15.31683395	    -12.47558744	      2.59141475	     -1.57506272	      3.69708055	    -16.38604988	      4.04046507	    -63.85200968	     10.23201080	     -7.47941340	    -12.11761685	     10.03304153	    -11.10512457
      4.41000000	     13.61825312	     -8.96444606	     13.45036733	      1.14257243	      0.93684732	      0.08509973	     -1.84734181	     15.61247232	    -15.06902705	    -12.20221835	      2.70531510	     -1.62941066	      4.58485987	    -16.40778844	      3.86017204	    -63.34959606	     11.50748432	     -8.28875689	    -12.33076096	     10.00151278	    -10.81432382
      4.42000000	     13.63484503	     -8.95959450	     13.24703431	      1.14698925	      0.93730637	      0.08576017	     -2.31528146	     15.72831878	    -14.82415213	    -11.97415491	      2.81844257	     -1.66080360	      5.40311533	    -16.36240120	      3.69334679	    -62.68309046	     12.72100374	     -8.88435033	    -12.56206773	      9.94365052	    -10.52011793
      4.43000000	     13.64323065	     -8.93139532	     13.02372507	      1.15120955	      0.93776931	      0.08636016	     -2.74734603	     15.79863847	    -14.57078580	    -11.79271100	      2.93468588	     -1.66850455	      6.15221459	    -16.25291206	      3.54547497	    -61.87094078	     13.85261649	     -9.22395520	    -12.80494944	      9.86346469	    -10.22214604
      4.44000000	     13.64338900	     -8.88074333	     12.77717812	      1.15526291	      0.93824019	      0.08689744	     -3.14444006	     15.82330624	    -14.31822233	    -11.65883876	      3.04800342	     -1.65749811	      6.82529425	    -16.08537368	      3.40914823	    -60.92596230	     14.89245706	     -9.34969893	    -13.05437777	      9.76364027	     -9.93591271
      4.45000000	     13.62497558	     -8.83551285	     12.50572348	      1.15913733	      0.93866055	      0.08737352	     -3.47601867	     15.82616819	    -14.07646174	    -11.59465335	      3.18583133	     -1.63668620	      7.45439433	    -15.88753124	      3.29963772	    -59.89438129	     15.82902769	     -9.23414632	    -13.29515285	      9.67410040	     -9.62392809
      4.46000000	     13.61559402	     -8.76723714	     12.19447027	      1.16286987	      0.93911847	      0.08781244	     -3.80329991	     15.79122702	    -13.77441926	    -11.56065622	      3.32030831	     -1.61102153	      7.97710068	    -15.64438885	      3.18444542	    -58.76086614	     16.65925329	     -9.02908137	    -13.56385373	      9.56319073	     -9.29289848
      4.47000000	     13.63082650	     -8.67505328	     11.85745990	      1.16646773	      0.93962621	      0.08819011	     -4.14461692	     15.72288032	    -13.41358032	    -11.55184321	      3.44926111	     -1.58406560	      8.38191936	    -15.35638580	      3.08395296	    -57.54514490	     17.35009170	     -8.69344735	    -13.87229709	      9.43563192	     -8.95034168
      4.48000000	     13.62978828	     -8.59035309	     11.49167964	      1.16996167	      0.94008129	      0.08853920	     -4.43590421	     15.63967499	    -13.07711458	    -11.59274235	      3.60570529	     -1.56904259	      8.73381063	    -15.06247123	      2.99400947	    -56.28753075	     17.95633293	     -8.33370930	    -14.16114225	      9.31450516	     -8.59830981
      4.49000000	     13.60352871	     -8.51684050	     11.09932470	      1.17335736	      0.94045838	      0.08884984	     -4.65961407	     15.54347403	    -12.76234353	    -11.69857542	      3.81054260	     -1.56301144	      9.04971899	    -14.76734955	      2.91194077	    -55.01151950	     18.49918160	     -8.11010980	    -14.41601013	      9.20284246	     -8.22414543
